Coordinates
version=1
nRows=17
nColumns=24
inDegrees=yes

Units are S.I. units (second, meters, Newtons, ...)
Angles are in degrees.

endheader
time	pelvis_tilt	pelvis_list	pelvis_rotation	pelvis_tx	pelvis_ty	pelvis_tz	hip_flexion_r	hip_adduction_r	hip_rotation_r	knee_angle_r	ankle_angle_r	subtalar_angle_r	mtp_angle_r	hip_flexion_l	hip_adduction_l	hip_rotation_l	knee_angle_l	ankle_angle_l	subtalar_angle_l	mtp_angle_l	lumbar_extension	lumbar_bending	lumbar_rotation
      0.36700000	     -6.38419795	      4.18691969	      0.40164536	     -0.81063268	      1.02383487	      0.26565782	     35.93775580	     -3.25836328	     -0.49139135	     -7.30879461	      8.39759926	     -3.67568333	      9.62848282	    -12.10945407	      5.68300038	      0.72358100	     -4.79454679	     19.87074168	      9.57957361	      2.50653188	     -7.52325302	     -4.92441447	     -3.30046870
      0.37116667	     -6.40276815	      4.16544364	      0.52774027	     -0.80433273	      1.02291225	      0.26578549	     35.86349712	     -3.24116896	     -0.27212439	     -7.58880541	      8.28576404	     -3.94390772	      9.62766888	    -12.22114898	      5.59783875	      0.70991704	     -5.30211444	     19.99411013	      9.82800907	      2.55246039	     -7.45603861	     -4.78826863	     -3.30395721
      0.37533333	     -6.43691981	      4.13273106	      0.64937324	     -0.79796721	      1.02200115	      0.26592700	     35.80316806	     -3.21013047	     -0.06942022	     -7.90770991	      8.14354487	     -4.20747401	      9.63205143	    -12.30500684	      5.49720166	      0.66168540	     -5.83905859	     20.11296180	     10.13063248	      2.63465350	     -7.35997445	     -4.63776164	     -3.28231315
      0.37950000	     -6.45562679	      4.08849333	      0.76814033	     -0.79156721	      1.02115634	      0.26607869	     35.72047900	     -3.16681224	      0.12137087	     -8.25116505	      7.95641563	     -4.48915994	      9.64197116	    -12.38984299	      5.38037244	      0.58636368	     -6.40864502	     20.21783977	     10.46771861	      2.74928528	     -7.28229049	     -4.47004129	     -3.26559605
      0.38366667	     -6.46722489	      4.03690102	      0.87878347	     -0.78513097	      1.02036285	      0.26625127	     35.63126859	     -3.11215770	      0.29358205	     -8.62672819	      7.73104364	     -4.76764031	      9.65853897	    -12.47755626	      5.25420794	      0.51485570	     -6.98674722	     20.28685286	     10.78390733	      2.89573417	     -7.20947867	     -4.29116194	     -3.23385903
      0.38783333	     -6.49074141	      3.98192480	      0.98816656	     -0.77866744	      1.01960258	      0.26644784	     35.55383493	     -3.05132349	      0.46220517	     -9.02690166	      7.45442673	     -5.07229248	      9.68464877	    -12.52818463	      5.11984651	      0.41889534	     -7.61474339	     20.34536491	     11.13715540	      3.09976394	     -7.11978681	     -4.10960056	     -3.20781706
      0.39200000	     -6.51284131	      3.91037969	      1.09743930	     -0.77215998	      1.01890455	      0.26663996	     35.47130112	     -2.97699652	      0.59540483	     -9.44428060	      7.12294652	     -5.37816423	      9.71269311	    -12.57001446	      4.96662071	      0.33878827	     -8.26556927	     20.36060021	     11.44888323	      3.31856679	     -7.02337900	     -3.90082344	     -3.17263234
      0.39616667	     -6.52537523	      3.84020398	      1.19857286	     -0.76565131	      1.01826839	      0.26686526	     35.38422733	     -2.89914576	      0.72298676	     -9.88557727	      6.73353661	     -5.69827023	      9.75148745	    -12.60210473	      4.81013088	      0.21572235	     -8.95169340	     20.36029546	     11.82079049	      3.61676982	     -6.94666223	     -3.70423285	     -3.13015531
      0.40033333	     -6.55470175	      3.74818660	      1.29500412	     -0.75907733	      1.01766223	      0.26709947	     35.31630904	     -2.79992005	      0.81616318	    -10.34961187	      6.31370061	     -6.01330752	      9.78702512	    -12.60779230	      4.63096547	      0.11345936	     -9.65852163	     20.32066886	     12.13305381	      3.91170222	     -6.83355080	     -3.46461600	     -3.07987512
      0.40450000	     -6.56076674	      3.66514612	      1.38768779	     -0.75253574	      1.01715753	      0.26736280	     35.23237999	     -2.70829163	      0.89579529	    -10.83410998	      5.81902795	     -6.32271421	      9.84180635	    -12.60588448	      4.45380506	     -0.04316420	    -10.42099003	     20.25263944	     12.55222633	      4.37599751	     -6.77044138	     -3.25868376	     -3.02779036
      0.40866667	     -6.59350375	      3.54818077	      1.47116206	     -0.74591276	      1.01666368	      0.26762546	     35.17985606	     -2.58259921	      0.94353320	    -11.34432195	      5.34300645	     -6.64563418	      9.87661506	    -12.57376770	      4.24659690	     -0.15553123	    -11.19133630	     20.14496652	     12.81996626	      4.75527845	     -6.63871686	     -2.97966197	     -2.96393105
      0.41283333	     -6.60682593	      3.42946456	      1.54936938	     -0.73930233	      1.01626926	      0.26791714	     35.11831266	     -2.45523219	      0.96532055	    -11.88087837	      4.82599954	     -6.93793130	      9.90557646	    -12.53195795	      4.03170561	     -0.30261756	    -12.01513023	     19.99735188	     13.14874115	      5.15967308	     -6.54629340	     -2.70510091	     -2.88503519
      0.41700000	     -6.62429556	      3.33199636	      1.62340377	     -0.73271286	      1.01591447	      0.26821521	     35.09823271	     -2.35607303	      0.90685532	    -12.49529194	      4.35438643	     -7.05786293	     10.17843264	    -12.46139907	      3.83662386	     -0.45932599	    -12.87098417	     19.73225282	     13.48568316	      8.79754194	     -6.46662271	     -2.47800957	     -2.80257572
      0.42116667	     -6.62731661	      3.19411400	      1.67764495	     -0.72607449	      1.01567426	      0.26856914	     35.03519534	     -2.19913946	      0.94397450	    -13.06060791	      3.79125830	     -7.42149838	     10.15960831	    -12.40599609	      3.60675965	     -0.56115805	    -13.72969018	     19.46713526	     13.66941602	      8.88025657	     -6.38439727	     -2.17415369	     -2.73053229
      0.42533333	     -6.64578911	      3.05549621	      1.72832105	     -0.71943403	      1.01544941	      0.26893439	     35.01843575	     -2.04801245	      0.91061979	    -13.69370736	      3.29481613	     -7.64657501	     10.13901851	    -12.28811346	      3.36618292	     -0.74773336	    -14.67850114	     19.19518303	     13.99070523	      9.03625813	     -6.28308877	     -1.88060842	     -2.62952741
      0.42950000	     -6.63122437	      2.92238875	      1.76076351	     -0.71281831	      1.01533262	      0.26935870	     34.98510084	     -1.89383982	      0.87710371	    -14.36481159	      2.80854248	     -7.85380309	     10.10518894	    -12.18041623	      3.12610214	     -0.96858308	    -15.66386633	     18.85814268	     14.37118389	      9.32093000	     -6.23689797	     -1.60308228	     -2.53343104
      0.43366667	     -6.65018196	      2.76656639	      1.79593407	     -0.70616080	      1.01523026	      0.26977142	     34.98912113	     -1.72482147	      0.81325237	    -15.05359119	      2.39677640	     -8.01264019	     10.06582874	    -12.01106899	      2.86278793	     -1.16845041	    -16.69738500	     18.49641316	     14.63875524	      9.64024809	     -6.13208250	     -1.28475652	     -2.41658027
